<?xml version="1.0" encoding="utf-8"?>
<!-- Generator: Adobe Illustrator 27.0.1, SVG Export Plug-In . SVG Version: 6.00 Build 0)  -->
<svg version="1.1" id="design" xmlns="http://www.w3.org/2000/svg" xmlns:xlink="http://www.w3.org/1999/xlink" x="0px" y="0px"
	 viewBox="0 0 4000 2000" style="enable-background:new 0 0 4000 2000;" xml:space="preserve">
<style type="text/css">
	.st0{fill:#FDDE90;}
	.st1{fill:#2D2D2D;}
	.st2{fill:#989DCB;}
	.st3{fill:#4A4E9A;}
	.st4{fill:#97BBE1;}
</style>
<g>
	<g>
		<g>
			<g>
				<path class="st0" d="M990.24,1359.27c-198.1,0-359.24-161.13-359.24-359.24s161.13-359.3,359.24-359.3
					c121.63,0,229.41,60.82,294.36,153.61l87.39-61.02c-84.33-120.37-224.02-199.17-381.75-199.17
					c-256.86,0-465.82,209.03-465.82,465.88s208.96,465.82,465.82,465.82c157.74,0,297.42-78.8,381.69-199.1l-87.33-61.02
					C1219.58,1298.52,1111.87,1359.27,990.24,1359.27z"/>
			</g>
			<path class="st1" d="M1017.31,1000.03c0,14.95-12.12,27.07-27.07,27.07s-27.07-12.12-27.07-27.07s12.12-27.08,27.07-27.08
				C1005.19,972.95,1017.31,985.08,1017.31,1000.03z"/>
			<circle class="st2" cx="1055.94" cy="794.48" r="73.27"/>
			<ellipse class="st2" cx="813.79" cy="873" rx="73.25" ry="73.25"/>
			<path class="st2" d="M754.52,1084c23.78-32.74,69.6-39.99,102.34-16.21s39.99,69.6,16.21,102.34
				c-23.78,32.74-69.6,39.99-102.34,16.21C738,1162.56,730.74,1116.74,754.52,1084z"/>
			<path class="st2" d="M996.66,1248.65c-23.79-32.74-16.53-78.56,16.21-102.34c32.74-23.78,78.56-16.53,102.34,16.21
				s16.53,78.56-16.21,102.34C1066.26,1288.64,1020.44,1281.38,996.66,1248.65z"/>
			<ellipse class="st2" cx="1205.62" cy="1000" rx="73.25" ry="73.25"/>
		</g>
		<g>
			<path class="st3" d="M1390.34,1000c0-99.27,76.22-170.32,178.79-170.32c56.93,0,104.45,20.7,135.5,58.34l-48.93,45.17
				c-22.11-25.41-49.87-38.58-82.81-38.58c-61.64,0-105.39,43.29-105.39,105.39c0,62.11,43.75,105.39,105.39,105.39
				c32.94,0,60.7-13.17,82.81-39.05l48.93,45.17c-31.05,38.11-78.57,58.81-135.98,58.81
				C1466.56,1170.32,1390.34,1099.28,1390.34,1000z"/>
			<path class="st3" d="M1774.73,835.33h76.23v329.35h-76.23V835.33z"/>
			<path class="st3" d="M2249.93,835.33v329.35h-62.57l-164.21-199.96v199.96h-75.28V835.33h63.05l163.74,199.96V835.33H2249.93z"/>
			<path class="st3" d="M2601.87,1103.51v61.16h-255.01V835.33h248.9v61.16h-173.15v71.52h152.91v59.28h-152.91v76.22H2601.87z"/>
			<path class="st3" d="M2981.09,1164.67l-0.47-197.61l-96.92,162.79h-34.35l-96.46-158.56v193.38h-71.52V835.33h63.05L2867.69,1040
				l121.39-204.67h62.58l0.94,329.35h-71.51V1164.67z"/>
			<path class="st3" d="M3366.43,1094.1h-152.91l-29.17,70.57h-78.11l146.8-329.35h75.28l147.27,329.35h-79.99L3366.43,1094.1z
				 M3342.43,1036.23l-52.22-126.09l-52.23,126.09H3342.43z"/>
		</g>
		<g>
			<path class="st4" d="M1656.69,1432.33l-0.21-109.32l-54.23,91.1h-9.86l-54.23-90.46v108.68h-20.58v-150.05h17.58l62.59,105.47
				l61.74-105.47h17.58l0.21,150.05L1656.69,1432.33L1656.69,1432.33z"/>
			<path class="st4" d="M1768.14,1367.59v-85.31h21.43v84.46c0,33.23,15.22,48.23,42.23,48.23s42.45-15.01,42.45-48.23v-84.46h20.79
				v85.31c0,43.51-23.79,66.45-63.45,66.45C1792.15,1434.04,1768.14,1411.1,1768.14,1367.59z"/>
			<path class="st4" d="M1986.13,1282.28h21.44v131.4h81.24v18.65h-102.68V1282.28z"/>
			<path class="st4" d="M2176.49,1300.92h-51.44v-18.64h124.11v18.64h-51.44v131.41h-21.23L2176.49,1300.92L2176.49,1300.92z"/>
			<path class="st4" d="M2319.67,1282.28h21.44v150.05h-21.44V1282.28z"/>
			<path class="st4" d="M2572.4,1432.33l-0.21-109.32l-54.23,91.1h-9.86l-54.23-90.46v108.68h-20.58v-150.05h17.58l62.59,105.47
				l61.74-105.47h17.58l0.21,150.05L2572.4,1432.33L2572.4,1432.33z"/>
			<path class="st4" d="M2794.04,1413.68v18.65h-108.89v-150.05h105.9v18.64h-84.46v46.09h75.24v18.22h-75.24v48.45L2794.04,1413.68
				L2794.04,1413.68z"/>
			<path class="st4" d="M2875.92,1282.28h63.24c48.23,0,81.03,30.44,81.03,75.02c0,44.59-32.8,75.03-81.03,75.03h-63.24V1282.28z
				 M2937.86,1413.68c37.09,0,60.88-22.72,60.88-56.38c0-33.65-23.8-56.38-60.88-56.38h-40.51v112.76H2937.86z"/>
			<path class="st4" d="M3100.13,1282.28h21.43v150.05h-21.43V1282.28z"/>
			<path class="st4" d="M3309.34,1394.82h-79.74l-16.51,37.51h-22.08l67.95-150.05h21.23l68.17,150.05h-22.51L3309.34,1394.82z
				 M3301.84,1377.67l-32.37-73.53l-32.37,73.53H3301.84z"/>
		</g>
	</g>
</g>
</svg>
