<?xml version="1.0" encoding="utf-8"?>
<!-- Generator: Adobe Illustrator 27.0.1, SVG Export Plug-In . SVG Version: 6.00 Build 0)  -->
<svg version="1.1" id="Capa_1" xmlns="http://www.w3.org/2000/svg" xmlns:xlink="http://www.w3.org/1999/xlink" x="0px" y="0px"
	 viewBox="0 0 425.2 364.16" style="enable-background:new 0 0 425.2 364.16;" xml:space="preserve">
<style type="text/css">
	.st0{fill:#FFFFFF;}
	.st1{fill:#97BBE1;}
	.st2{fill:#4A4E9A;}
	.st3{fill:#FDDE90;}
	.st4{fill:#F3B09F;}
	.st5{fill:#323777;}
	.st6{fill:#EEA1C6;}
	.st7{fill:#989DCB;}
	.st8{fill:#303573;}
	.st9{fill:#555FA5;}
	.st10{fill:#D57D6C;}
</style>
<rect class="st0" width="425.2" height="364.16"/>
<g id="Paquete_de_vectores:_motivo_de_puntos_15">
</g>
<g id="Paquete_de_vectores:_motivo_de_puntos_15_1_">
</g>
<g id="Paquete_de_vectores:_motivo_de_puntos_03">
</g>
<g>
	<g>
		<g>
			<path class="st1" d="M298.94,259.96c-45.55,18.66-74.91-22.91-82.82-36.09c-8.69-14.5-19.58-23.22-29.86-28.46
				c-8.52-4.94-18.4-7.79-28.96-7.79c-0.29,0-0.57,0.02-0.86,0.02c-1.93-0.06-3.14,0.01-3.4,0.03l0.01,0.12
				c-29.92,2.18-53.53,27.13-53.53,57.61c0,31.91,25.87,57.78,57.78,57.78c28.99,0,52.98-21.34,57.14-49.17
				c17.65,19.52,39.26,29.91,61.82,29.91c9.9,0,19.99-2,30-6.1c37.74-15.46,65.41-19.29,103.51,4.69l10.28-16.34
				C375.31,238.02,340.54,242.92,298.94,259.96z"/>
			<path class="st2" d="M192.07,245.4c0,19.2-15.57,34.78-34.77,34.78s-34.77-15.57-34.77-34.78s15.57-34.77,34.77-34.77
				S192.07,226.2,192.07,245.4z"/>
			<path class="st3" d="M157.3,167.83c-42.85,0-77.58,34.73-77.58,77.58c0,42.85,34.73,77.58,77.58,77.58
				c42.84,0,77.57-34.73,77.57-77.58C234.88,202.56,200.15,167.83,157.3,167.83z M225.53,240.58h-49.38
				c-0.46-1.81-1.18-3.52-2.1-5.08l34.92-34.92C218.4,211.45,224.46,225.32,225.53,240.58z M162.13,177.18
				c15.26,1.06,29.13,7.13,40,16.57l-34.92,34.92c-1.56-0.93-3.27-1.64-5.08-2.1V177.18z M152.47,264.24v49.38
				c-15.26-1.06-29.13-7.12-40-16.57l34.92-34.92C148.96,263.07,150.66,263.78,152.47,264.24z M112.47,193.75
				c10.87-9.44,24.74-15.51,40-16.57v49.39c-1.81,0.46-3.51,1.17-5.08,2.1L112.47,193.75z M162.13,264.25
				c1.81-0.46,3.52-1.18,5.08-2.11l34.92,34.92c-10.87,9.44-24.74,15.51-40,16.57V264.25z M105.64,200.57l34.92,34.92
				c-0.93,1.57-1.64,3.27-2.1,5.08H89.08C90.14,225.32,96.2,211.45,105.64,200.57z M89.08,250.23h49.38
				c0.46,1.81,1.18,3.52,2.1,5.09l-34.92,34.92C96.2,279.36,90.14,265.49,89.08,250.23z M208.96,290.23l-34.92-34.92
				c0.93-1.57,1.64-3.27,2.1-5.09h49.38C224.46,265.49,218.4,279.36,208.96,290.23z"/>
		</g>
		<g>
			<g>
				<path class="st4" d="M157.09,103.09c-7.28-4.65-28.45-20.92-28.45-20.92c-0.08-0.04-0.13-0.1-0.21-0.15l-27.36-12.26
					c-2.85-0.97-1.41-5.33,1.44-4.35l31.61,8.79c0.72,0.08,1.45,0.29,2.12,0.68c0,0,21.38,12.72,27.47,17.92
					c1.93,1.65,4.96,5.96,1.72,9.15C163.05,104.3,161.17,105.69,157.09,103.09z"/>
				<g>
					<path class="st4" d="M101.41,69.95c0,0-6.17,3.78-13.4-3.34c-1.87-1.85-0.74-4.07,4.43-1.39c3.51,1.8,5.98,1.73,4.64-0.42
						c-0.54-0.86-1.07-0.99-0.92-1.74c0.38-1.86,5.95,2.37,5.95,2.37L101.41,69.95z"/>
				</g>
			</g>
			<g>
				<polygon class="st4" points="257.58,220.32 262.75,216.59 251.05,200.27 242.27,206.67 				"/>
				<path class="st2" d="M263.35,216.15l-6.3,4.55l2.27,3.13l2.01,2.79l14.87-10.73c0,0-0.23-2.58-4.79-1.65
					C267.82,214.97,263.35,216.15,263.35,216.15z"/>
			</g>
			<path class="st5" d="M195.42,146.04c0,0,40.21,27.27,65.77,63.9l-11.23,7.54c0,0-22.9-30.18-36.67-38.88l-24.56-21.29l-0.19-1.13
				L195.42,146.04z"/>
			<g>
				<polygon class="st4" points="248.3,234.27 253.47,230.54 241.77,214.22 232.99,220.62 				"/>
				<path class="st2" d="M254.07,230.1l-6.3,4.55l2.27,3.13l2.01,2.79l14.87-10.73c0,0-0.22-2.58-4.79-1.65
					C258.54,228.92,254.07,230.1,254.07,230.1z"/>
			</g>
			<path class="st2" d="M169.89,156.66c0,0-4.23,11.38,10.72,18.52c9.32,4.45,23.5,2.5,59.35,56.8l10.6-8.62
				c0,0-35.3-57.58-65.9-71.12L169.89,156.66z"/>
			<path class="st6" d="M198.7,149.03c0,0-1.72-7.97-2.65-10.52c-2.57-6.98-8.68-17.53-13.9-26.29
				c-4.46-7.5-13.53-17.71-13.53-17.71L198.7,149.03z"/>
			<path class="st6" d="M190.51,158.23c0,0-14.43-50.53-22.19-64.05c-0.72-1.26-2.43-1.5-3.76-1.56c0,0-6.55,0.57-8.47,1
				c-0.8,0.18-3.63,1.9-3.3,6.46c0.81,11.09,4.38,35.19,5.37,51.89c0.31,5.27,2.72,11.23,6.82,11.07
				C170.75,162.82,190.51,158.23,190.51,158.23z"/>
			<path class="st4" d="M150.26,64.48c4.9-10.09,21.1-7.59,21.64,5.65l0.01-0.08c0,0,0,0.16,0.01,0.43c0.01,0.1,0.01,0.2,0.01,0.3
				c0.03,1,0.14,2.9,0.48,5c0.11,0.71,0.35,1.27,0.72,2.05c0.55,1.18-0.63,1.3-0.9,1.28c-0.74-0.06-1.32-0.12-1.32-0.12
				c-0.03,0.17-0.06,0.36-0.09,0.52c-0.19,1.14-0.46,2.09-0.78,2.87c-1.34,3.15-3.72,3.64-6.23,3.79l0.76,6.45l-8.47,1
				c0,0,1.5-5.02,1.37-7.46c-0.06-1.26-2.28-2.42-3.15-3.09c-1.5-1.17-3.14-2.85-4.18-5.52C148.08,72.28,148.31,68.48,150.26,64.48z
				"/>
			<path class="st0" d="M168.32,94.18c0,0,22.7,37.02,30.37,54.84l-8.18,9.21C190.51,158.23,171.81,101.58,168.32,94.18z"/>
			<path class="st3" d="M172.06,68.16c0,0,0.93-9.97-7.87-12.48c-8.8-2.51-28.68,0.01-45.52,9.12
				c-13.91,7.53-23.35,13.34-54.63,9.52c-10.69-1.31-17.35,18.29-1.98,21.49c4.61,0.96,12.04-5.58,18.77,1.39
				c6.72,6.97,17.94,14.13,27.67,9.89c9.73-4.23,9.34-0.65,19.17,0.88c9.82,1.53,29.25-8.51,32.7-19.53
				c0.69-2.21,0.46-7.41-1.2-9.18c-1.66-1.77-2.65-0.51-3.59-2.33c-0.94-1.81-1.45-4.72,0.57-5.14c2.01-0.43,2.41,3.14,3.98,2.15
				C161.7,72.95,168.39,73.14,172.06,68.16z"/>
			<g>
				<path class="st4" d="M154.23,105.9c-4.75-7.21-17.46-30.69-17.46-30.69c-0.05-0.07-0.08-0.15-0.12-0.22l-20-22.35
					c-2.2-2.05,0.89-5.44,3.09-3.39l25.28,20.91c0.64,0.36,1.21,0.85,1.66,1.48c0,0,14.34,20.33,17.78,27.56
					c1.1,2.3,2.1,7.47-2.15,9.06C159.18,109.43,156.88,109.94,154.23,105.9z"/>
				<g>
					<path class="st4" d="M116.88,52.95c0,0-7.18,0.93-10.87-8.51c-0.96-2.45,0.98-4.02,4.62,0.53c2.47,3.08,4.75,4.02,4.41,1.51
						c-0.14-1.01-0.57-1.34-0.13-1.96c1.1-1.55,4.47,4.59,4.47,4.59L116.88,52.95z"/>
				</g>
			</g>
		</g>
	</g>
	<g>
		<g>
			<path class="st4" d="M381.56,43.47c-3.59-12.09-22.02-12.28-25.03,2.32V45.7c0,0-0.02,0.17-0.08,0.48
				c-0.02,0.11-0.05,0.22-0.06,0.33c-0.22,1.1-0.68,3.19-1.44,5.46c-0.26,0.77-0.63,1.34-1.18,2.14c-0.82,1.21,0.46,1.57,0.77,1.59
				c0.83,0.08,1.48,0.1,1.48,0.1c0,0.2,0,0.41,0,0.59c0,1.3,0.12,2.4,0.35,3.32c0.91,3.74,3.47,4.71,6.21,5.34l-2.15,5.85l5.17,6.96
				l5.41-6.96c0,0-1.97-2.02-1.39-4.71c0.3-1.39,2.97-2.26,4.06-2.85c1.87-1.02,4-2.59,5.63-5.36
				C382.56,52.52,383,48.26,381.56,43.47z"/>
			<path class="st2" d="M388.01,47.37c0.33-1.51-0.54-3.32-3.38-5.76c-3.16-2.72-1.42-4.45-3.67-6.64
				c-1.83-1.77-4.16-2.48-6.26-2.13c-1.34,0.22-1.87,0.15-4.87-1.24c-2.27-1.04-4.69-0.16-5.92,2.05c-0.81,1.46-1.2,2.68-4.49,2.92
				c-3.7,0.27-4.22,7.85-0.93,8.73c2.41,0.64,3.85-2.89,6.15-0.82c2.31,2.07,0.98,5.98,4.25,7.68c0.77,0.4,2.2,0.16,3.14-1.41
				c0.92-1.51,3.45,0.62,3.04,2.65c-0.25,1.2-1.36,4.84-3.91,3.18c-1.48-0.96-3.59-0.05-1.68,2.42c0.97,1.27-0.33,3.49,0.3,4.78v0
				c0,0,0.01,0.01,0.01,0.01c0.08,0.15,0.19,0.3,0.34,0.42c2.83,2.47,8.29-0.53,9.36-1.47c1.1-0.97,2.94-0.83,4.46-2.93
				c1.11-1.55,1.19-3.24,1.44-6.03C385.61,51,387.48,49.85,388.01,47.37z"/>
		</g>
		<path class="st0" d="M346.43,150.83l-3.69-70.75c0-2.28,2.01-3.73,4.13-4.58c3.47-1.41,13.56-4.58,13.56-4.58l5.3,6.57l5.29-6.57
			c0,0,9.27,2.87,12.25,4.58c1.97,1.13,4.35,2.67,4.35,3.74l-3.69,71.6H346.43z"/>
		<path class="st7" d="M384.68,147.52l-2.16,52.27l-6.16,41.69c0,0-1.04,0.46-3.84,0.46c-2.78,0-3.1-0.28-3.1-0.28l-5.02-72.65
			l-3.6,72.65c0,0-0.32,0.28-3.1,0.28c-2.81,0-3.84-0.46-3.84-0.46l-6.16-41.69l-1.41-52.27H384.68z"/>
		<polyline class="st8" points="346.42,152.44 346.29,147.52 384.68,147.52 384.48,152.44 		"/>
		<rect x="360.92" y="147.56" class="st0" width="9.77" height="4.88"/>
		<g>
			<path class="st2" d="M347.05,75.09c2.53-1.03,8.94-2.97,12.91-4.18l5.84,41.86c0.08,15.24,0,35.75,0,35.75s-7.66,1.62-12.28,3.24
				c-2.15,0.76-7.23,0.68-7.23,0.68l-3.54-72.58C342.75,77.49,344.84,75.98,347.05,75.09z"/>
		</g>
		<g>
			<path class="st2" d="M383.31,75.09c-2.54-1.03-8.32-2.97-12.3-4.18c0,0-5.28,42.4-5.29,43.36c-0.08,13.52,0.06,27.65,0.06,34.25
				c0,0,6.43,1.62,11.04,3.24c2.16,0.76,7.65,0.68,7.65,0.68l3.13-72.58C387.61,77.49,385.51,75.98,383.31,75.09z"/>
		</g>
		<path class="st2" d="M376.36,241.48c0.47,0.92,0.82,3.1,1.39,4.36c1.45,3.25,3.59,4.86,5.42,8.1c1.07,1.89,0.67,6.43-4.47,6.92
			c-5.14,0.5-7.21-3.23-7.54-5.34c-0.74-4.87-0.54-8.36-1.72-12.97c-0.46-1.81,1.77-2.57,3.61-2.53
			C374.5,240.04,375.8,240.35,376.36,241.48z"/>
		<path class="st2" d="M354,241.48c-0.46,0.92-0.82,3.1-1.38,4.36c-1.46,3.25-3.59,4.86-5.43,8.1c-1.07,1.89-0.67,6.43,4.47,6.92
			c5.14,0.5,7.21-3.23,7.54-5.34c0.74-4.87,0.53-8.36,1.72-12.97c0.46-1.81-1.77-2.57-3.62-2.53
			C355.87,240.04,354.56,240.35,354,241.48z"/>
		<g>
			<g>
				<path class="st7" d="M369.69,74.48c-0.55,0.9-1.17,1.75-1.84,2.32c-0.67,0.58-1.41,0.81-2.16,0.81c-0.33,0-0.39-0.01-0.63-0.05
					c-0.19-0.03-0.39-0.06-0.57-0.14c-0.38-0.12-0.77-0.32-1.15-0.59c-0.38-0.27-0.74-0.61-1.06-1.02c-0.16-0.2-0.31-0.41-0.45-0.64
					l-0.2-0.34l-0.09-0.17c-0.03-0.06-0.03-0.13-0.19-0.14l-0.08-0.01c-0.13-0.02-0.25,0.04-0.35,0.12
					c-0.12,0.12-0.08,0.18-0.07,0.25l0.04,0.21l0.1,0.42c0.07,0.28,0.16,0.57,0.27,0.85c0.21,0.56,0.49,1.11,0.86,1.63
					c0.38,0.51,0.88,0.99,1.5,1.32c0.31,0.16,0.64,0.28,0.98,0.38c0.31,0.08,0.79,0.13,1.01,0.13c0.74,0.01,1.43-0.12,2.08-0.44
					c0.64-0.33,1.19-0.77,1.59-1.3c0.81-1.06,1.16-2.26,1.13-3.47c0-0.21-0.17-0.37-0.38-0.37c-0.13,0.01-0.24,0.07-0.31,0.18
					L369.69,74.48z"/>
				<g>
					<polygon class="st7" points="366.52,77.48 369.09,80.3 367.15,82.44 364.09,82.44 362.16,80.3 364.72,77.48 					"/>
					<polygon class="st7" points="364.09,82.44 365.46,82.44 365.83,82.44 367.15,82.44 368.82,89.51 365.79,113.55 362.42,89.51 
											"/>
				</g>
			</g>
		</g>
		<g>
			<g>
				<path class="st0" d="M365.72,77.48c0,0-1.12-1.9-2.59-3.77c-0.88-1.12-1.62-2.08-2.71-2.8c0,0-2.23,0.1-2.72,0.22
					c-0.52,0.12-1.99,0.75-1.99,0.75s1.22,4.16,1.46,4.88C357.17,76.76,361.38,73.71,365.72,77.48z"/>
			</g>
			<g>
				<path class="st0" d="M365.79,77.48c0,0,1.12-1.9,2.59-3.77c0.88-1.12,1.56-2.06,2.64-2.79c0,0,2.29,0.09,2.78,0.21
					c0.53,0.12,1.99,0.75,1.99,0.75s-1.22,4.16-1.45,4.88C374.34,76.76,370.13,73.71,365.79,77.48z"/>
			</g>
		</g>
		<path class="st7" d="M346.7,54.15L294.22,3.1l-20.14,45.06l35.82,4.62l-0.16,1.82c-0.25,3.01,1.98,5.67,4.98,5.92l17.71,1.52
			c0.08,0.01,0.14,0.01,0.21,0.01c1.38,0.07,2.72-0.38,3.78-1.28c1.12-0.94,1.8-2.26,1.93-3.72l0.05-0.59l6.42,0.83l3.16,4.77
			l3.83-8.02L346.7,54.15z M334.69,56.75c-0.03,0.48-0.26,0.91-0.63,1.22c-0.37,0.31-0.84,0.46-1.31,0.41l-17.72-1.51
			c-0.99-0.08-1.72-0.96-1.63-1.94l0.14-1.66L334.76,56L334.69,56.75z"/>
		<g>
			<g>
				<g>
					<g>
						<polygon class="st9" points="324.68,64.49 316.63,70.32 338.1,104.17 348.19,97.07 						"/>
					</g>
				</g>
				<path class="st4" d="M318.29,69.21c0,0-1.84-0.97-2.95-2.79c-1.58-2.61-1.85-5.72-1.16-8.82c0.31-1.35,1.98-3.2,5.73-2.4
					c1.24,0.26,4.71,1.03,5,2.51c0,0-2.91,1.4-1.1,3.6c0,0,0.1,3.74-0.94,4.49L318.29,69.21z"/>
			</g>
			<g>
				<g>
					<g>
						<g>
							<path class="st9" d="M385.12,89.72c-17.79,13.41-14,11.6-29.58,20.28l-7.47-13.13c0,0,15.15-9.57,26.88-17.13
								c7.07-4.56,10.43-4.94,12.65-0.18C389.1,82.76,388.26,87.35,385.12,89.72z"/>
						</g>
						<path class="st9" d="M348.07,96.88l7.47,13.12c0,0-11.54,4.34-17.56-6.02L348.07,96.88z"/>
					</g>
				</g>
			</g>
		</g>
	</g>
	<g>
		<g>
			
				<rect x="13.02" y="332.91" transform="matrix(0.9302 -0.3671 0.3671 0.9302 -122.327 29.2447)" class="st4" width="5.39" height="6.57"/>
			<path class="st2" d="M14.57,340.65l-2.78-7.06l-3.52,1.39l-3.12,1.23l6.57,16.68c0,0,2.5,0.42,2.72-4.13
				C14.62,345.17,14.57,340.65,14.57,340.65z"/>
		</g>
		<path class="st1" d="M47.52,235.56c0,0,3.99,42.51,4.52,56.47c0.56,14.84-4.52,56.47-4.52,56.47h-8.93c0,0-5.61-42.04-7.37-56.47
			c-3.27-27.01-2.99-56.47-2.99-56.47H47.52z"/>
		<g>
			<rect x="39.84" y="348.53" class="st4" width="6.57" height="5.39"/>
			<path class="st2" d="M46.85,353.92h-7.59v3.78v3.36h17.93c0,0,1.3-2.17-2.85-4.04C51.07,355.54,46.85,353.92,46.85,353.92z"/>
		</g>
		<path class="st1" d="M52.04,287.02l-2.31-41.2h-1.28l-3.26-10.27h3.96h21.2c0,0,3.76,42.03,0,52.89
			c-15.29,44.21-50.89,50.51-50.89,50.51l-2.87-7.59L52.04,287.02z"/>
		<path class="st2" d="M27.11,169.86l-4.36-45.81c-0.79-8.32,5.31-15.7,13.62-16.5c8.32-0.79,15.7,5.31,16.5,13.63l4.37,45.81
			L27.11,169.86z"/>
		<path class="st6" d="M26.55,240.74c0,0,8.87,2.68,23.71,1.96c9.23-0.45,21.67-5.68,21.67-5.68l-16.28-86.5l-29.78,6.34l1.23,41.1
			L26.55,240.74z"/>
		<g>
			<path class="st4" d="M36.49,154.51l-1.25-13.14l8.62-0.82l1.16,12.16l6.63-1.38c0.94,5.37-3.48,9.4-9.43,10.58
				c-6.36,1.26-10.93-0.55-12.35-5.96L36.49,154.51z"/>
			<path class="st10" d="M44.39,146.01c-1.3,0.62-2.72,1.03-4.24,1.18c-1.51,0.14-2.98,0-4.39-0.36l-0.52-5.45l8.63-0.82
				L44.39,146.01z"/>
		</g>
		<path class="st6" d="M10.33,203.2c1.11-8.47,1.4-10.64,3.25-26.98c1.26-11.15,10.32-18.53,12.29-19.4c0,0,3.63,17.78,0.68,22.6
			c-2.71,4.42-4.39,23.71-4.39,23.71c-0.05,3.2-2.68,5.75-5.88,5.7C13.09,208.78,9.92,206.37,10.33,203.2z"/>
		<path class="st6" d="M104.42,193.41c-4.83-7.04-14.66-18.4-29.42-31.19c-8.49-7.35-17.61-11.82-19.77-11.7
			c0,0-0.86,15.77,3.95,18.72c4.42,2.7,21.47,21.32,32.72,30.64c2.46,2.03,6.2,3.93,9.03,2.44
			C103.76,200.83,106.23,196.05,104.42,193.41z"/>
		<g>
			<path class="st4" d="M49.71,135.99c-2.19,7.62-5.56,8.05-9.8,7.82l0,0c-7-0.17-12.53-5.97-12.35-12.97l0.19-8.27
				c0.17-6.99,5.97-12.52,12.97-12.36l0,0c6.99,0.17,11.77,8.93,11.61,15.93C52.33,126.14,50.58,132.97,49.71,135.99z"/>
			<g>
				<path class="st2" d="M40.72,109.9c-7.24-0.17-13.24,5.55-13.41,12.78l-0.1,4.39c9.76,4.13,21.21-2.12,23.32-7.28
					c-0.02,0.88-0.01,1.93,0.01,2.68c0.04,2,0.45,3.32,2.89,4.15l0.08-3.31C53.68,116.08,47.96,110.08,40.72,109.9z"/>
				<path class="st2" d="M31.74,127.9c0,0,3.56,1.72,0.65,7.06c-1.88,3.45-0.03,6.07,3.2,7.98c4.27,2.52,4.29,13.84,1.74,17.38
					c-3.16,4.37-10.51,8.4-18.81,0.14c-6.47-6.44-0.93-24.14,0.25-31.62c1.19-7.59,4.96-22.23,20.71-21.28L31.74,127.9z"/>
				<path class="st2" d="M54.9,142.51c0,0,0.18,8.84,3.43,13.93c3.21,5.03-3.32,11.49-10.47,8.11c-4.27-2.02-4.16-5.02-3.94-14.5
					l0.27-6.52L54.9,142.51z"/>
			</g>
		</g>
		<g>
			<g>
				<g>
					
						<rect x="16.04" y="167.15" transform="matrix(0.9704 -0.2416 0.2416 0.9704 -39.638 18.1829)" class="st2" width="76.59" height="7.19"/>
					<g>
						<polygon class="st0" points="18.77,175.89 17.24,180.23 18.04,183.48 20.77,182.8 23.65,174.68 						"/>
						<polygon class="st0" points="30.65,180.34 25.77,181.56 28.64,173.44 33.52,172.22 						"/>
						<polygon class="st0" points="40.53,177.88 35.65,179.1 38.52,170.98 43.4,169.76 						"/>
						<polygon class="st0" points="50.4,175.42 45.52,176.64 48.4,168.52 53.27,167.3 						"/>
						<polygon class="st0" points="60.27,172.97 55.4,174.18 58.27,166.06 63.15,164.85 						"/>
						<polygon class="st0" points="70.15,170.51 65.27,171.73 68.15,163.6 73.03,162.39 						"/>
						<polygon class="st0" points="80.03,168.05 75.15,169.26 78.02,161.14 82.9,159.93 						"/>
						<polygon class="st0" points="90.62,158.01 87.89,158.68 85.02,166.81 89.9,165.59 91.44,161.26 						"/>
					</g>
				</g>
				<g>
					<polygon class="st2" points="16.3,176.49 85.92,144.82 82.95,138.28 14.54,169.4 					"/>
					<g>
						<polygon class="st0" points="15.54,168.94 15.11,171.68 16.3,176.49 18.77,175.37 20.12,166.86 						"/>
						<polygon class="st0" points="28.03,171.15 23.46,173.24 24.81,164.73 29.39,162.65 						"/>
						<polygon class="st0" points="37.3,166.94 32.72,169.02 34.07,160.51 38.65,158.43 						"/>
						<polygon class="st0" points="46.56,162.72 41.98,164.81 43.33,156.3 47.91,154.22 						"/>
						<polygon class="st0" points="55.82,158.51 51.24,160.59 52.59,152.09 57.17,150 						"/>
						<polygon class="st0" points="65.09,154.3 60.51,156.38 61.86,147.87 66.44,145.79 						"/>
						<polygon class="st0" points="74.35,150.09 69.77,152.17 71.13,143.66 75.7,141.58 						"/>
						<polygon class="st0" points="82.95,138.28 80.39,139.44 79.04,147.96 83.62,145.87 84.33,141.33 						"/>
					</g>
				</g>
				<polygon class="st2" points="32.08,179.98 18.04,183.48 14.54,169.38 21.24,166.35 30.37,173.09 				"/>
				<g>
					<path class="st0" d="M20.25,170.79c0.17,0.68-0.25,1.37-0.93,1.54c-0.68,0.17-1.37-0.25-1.55-0.93
						c-0.17-0.68,0.25-1.37,0.93-1.54C19.39,169.69,20.08,170.11,20.25,170.79z"/>
					<path class="st0" d="M22.38,179.34c0.17,0.68-0.25,1.37-0.93,1.54c-0.68,0.17-1.37-0.25-1.54-0.93
						c-0.17-0.68,0.24-1.37,0.93-1.54C21.51,178.24,22.21,178.66,22.38,179.34z"/>
					<path class="st0" d="M29.25,177.63c0.17,0.68-0.24,1.37-0.93,1.54c-0.68,0.17-1.37-0.25-1.54-0.93
						c-0.17-0.68,0.24-1.37,0.93-1.54C28.39,176.53,29.08,176.95,29.25,177.63z"/>
				</g>
			</g>
			<g>
				<path class="st2" d="M18.04,183.48l9.58,38.48c0.14,0.57,0.71,0.91,1.28,0.77l72.27-17.99c0.57-0.14,0.91-0.71,0.77-1.28
					l-9.58-38.48L18.04,183.48z"/>
				<path class="st0" d="M23.97,186.77l7.6,30.52l64.69-16.11l-7.6-30.52L23.97,186.77z M92.84,190.31l-18.59,4.63l-4.68-18.79
					l18.59-4.63L92.84,190.31z M32.08,216.44l-1.15-4.63l63.34-15.77l1.15,4.63L32.08,216.44z M30.8,211.3l-1.18-4.72l63.34-15.77
					l1.18,4.72L30.8,211.3z M48.58,201.32l-4.68-18.79l24.99-6.22l4.68,18.79L48.58,201.32z M43.23,182.7l4.68,18.79l-18.4,4.58
					l-4.68-18.79L43.23,182.7z"/>
			</g>
		</g>
		<g>
			<g>
				<path class="st4" d="M18.88,199.71c-2.99-1.12-6.33,0.41-7.44,3.41l0,0c-1.11,3,0.41,6.33,3.41,7.45c0,0,9.26,3.44,12.44,4.3
					c4.18,1.13,16.99,3.35,16.99,3.35l1.56-3.18c0,0-10.32-4.93-13.64-6.81C28.77,206.27,18.88,199.71,18.88,199.71z"/>
				<path class="st6" d="M18.78,199.14c2.62,0.85,5.01,3.35,5.85,4.34c0,0-3.64,0.07-6.07,2.72c-1.77,1.92-1.28,5-1.28,5
					c-1.38,0.01-2.79-0.53-3.77-1.14c-3.52-2.14-3.12-5.65-2.39-7.62C12.34,199.18,15.89,198.2,18.78,199.14z"/>
			</g>
			<path class="st4" d="M44.28,218.21c0,0,4.48,6.93,12.8,4.66c1.96-0.54,1.37-2.91-3.09-3.53c-3.02-0.41-6.31-2.22-4.51-2.99
				c0.73-0.31,2.72-0.97,2.51-1.91c-0.32-1.43-6.16,0.58-6.16,0.58L44.28,218.21z"/>
		</g>
		<g>
			<g>
				<path class="st4" d="M96.12,191.37c2.87-1.4,6.34-0.2,7.73,2.68l0,0c1.4,2.88,0.2,6.34-2.67,7.74c0,0-8.89,4.32-11.97,5.48
					c-4.05,1.52-16.59,4.97-16.59,4.97l-1.86-3.02c0,0,9.8-5.9,12.92-8.09C86.92,198.86,96.12,191.37,96.12,191.37z"/>
				<path class="st6" d="M96.17,190.8c-2.53,1.09-4.67,3.82-5.41,4.88c0,0,3.63-0.28,6.31,2.12c1.94,1.74,1.76,4.85,1.76,4.85
					c1.37-0.12,2.72-0.8,3.63-1.49c3.3-2.47,2.57-5.93,1.65-7.82C102.59,190.22,98.96,189.59,96.17,190.8z"/>
			</g>
			<path class="st4" d="M72.63,212.25c0,0-3.79,7.33-12.29,5.87c-2-0.34-1.64-2.77,2.74-3.81c2.97-0.7,6.06-2.83,4.2-3.41
				c-0.75-0.24-2.81-0.7-2.68-1.66c0.19-1.45,6.18-0.02,6.18-0.02L72.63,212.25z"/>
		</g>
	</g>
</g>
</svg>
